<svg width="148" height="120" viewBox="0 0 148 120" fill="none" xmlns="http://www.w3.org/2000/svg">
<path d="M32.8027 59.5341C29.7427 59.5341 26.9164 58.9447 24.3239 57.7658C21.7314 56.5448 19.4363 54.9449 17.4388 52.9661C15.4413 50.9452 13.8688 48.5874 12.7213 45.8928C11.5738 43.1561 11 40.1248 11 36.7986C11 33.5567 11.5738 30.5674 12.7213 27.8307C13.9113 25.052 15.4838 22.6311 17.4388 20.568C19.3938 18.5471 21.6676 16.9472 24.2601 15.7683C26.8952 14.5894 29.7427 14 32.8027 14C36.0328 14 39.114 14.7368 42.0466 16.2104C44.9791 17.6419 47.6991 19.8733 50.2066 22.9047L44.0228 27.9571C42.2803 25.8098 40.474 24.2731 38.604 23.3468C36.734 22.3784 34.8002 21.8943 32.8027 21.8943C30.8902 21.8943 29.1052 22.2732 27.4477 23.031C25.8326 23.7889 24.3664 24.8415 23.0489 26.1887C21.7739 27.4939 20.7751 29.0517 20.0526 30.8621C19.3301 32.6305 18.9688 34.6093 18.9688 36.7986C18.9688 38.988 19.3301 40.9668 20.0526 42.7351C20.7751 44.4613 21.7739 45.9981 23.0489 47.3454C24.3239 48.6927 25.7901 49.7452 27.4477 50.5031C29.1052 51.2609 30.8902 51.6398 32.8027 51.6398C34.8002 51.6398 36.734 51.1767 38.604 50.2505C40.474 49.2821 42.2803 47.7243 44.0228 45.5771L50.2066 50.6294C47.6991 53.6608 44.9791 55.9133 42.0466 57.3869C39.114 58.8184 36.0328 59.5341 32.8027 59.5341Z" fill="white"/>
<path d="M98.9958 36.6092C98.9958 39.7669 98.422 42.7351 97.2745 45.5139C96.1695 48.2506 94.6183 50.6504 92.6207 52.7135C90.6232 54.7765 88.3069 56.3975 85.6719 57.5763C83.0369 58.7552 80.2106 59.3447 77.1931 59.3447C74.1331 59.3447 71.2855 58.7552 68.6505 57.5763C66.0155 56.3554 63.6992 54.7134 61.7017 52.6503C59.7042 50.5452 58.1316 48.1243 56.9841 45.3876C55.8791 42.6088 55.3266 39.6827 55.3266 36.6092C55.3266 33.5357 55.9004 30.6516 57.0479 27.9571C58.1954 25.2204 59.7892 22.8205 61.8292 20.7575C63.8692 18.6524 66.2067 17.0103 68.8417 15.8315C71.4768 14.6526 74.2606 14.0632 77.1931 14.0632C80.2106 14.0632 83.0156 14.6526 85.6082 15.8315C88.2432 17.0103 90.5595 18.6524 92.557 20.7575C94.597 22.8205 96.1695 25.2204 97.2745 27.9571C98.422 30.6516 98.9958 33.5357 98.9958 36.6092ZM91.0907 36.6092C91.0907 33.8304 90.4532 31.3042 89.1782 29.0307C87.9457 26.7571 86.2669 24.9467 84.1419 23.5994C82.0594 22.21 79.7431 21.5153 77.1931 21.5153C74.6431 21.5153 72.3055 22.21 70.1805 23.5994C68.0555 24.9888 66.3555 26.8413 65.0805 29.157C63.8479 31.4305 63.2317 33.9146 63.2317 36.6092C63.2317 39.388 63.8479 41.9352 65.0805 44.2508C66.3555 46.5665 68.0555 48.419 70.1805 49.8084C72.3055 51.1978 74.6431 51.8925 77.1931 51.8925C79.7856 51.8925 82.1231 51.1978 84.2057 49.8084C86.2882 48.419 87.9457 46.5665 89.1782 44.2508C90.4532 41.8931 91.0907 39.3459 91.0907 36.6092Z" fill="white"/>
<path d="M104.966 58.8394V54.3555C104.966 52.1661 105.412 50.2715 106.305 48.6716C107.197 47.0717 108.387 45.6823 109.875 44.5034C111.405 43.2825 113.041 42.1457 114.784 41.0931C116.866 39.8721 118.97 38.6512 121.095 37.4302C123.22 36.2092 125.005 34.6303 126.45 32.6936C127.172 31.641 127.512 30.5043 127.47 29.2833C127.427 28.0623 127.066 26.9045 126.386 25.8098C125.749 24.673 124.877 23.7468 123.772 23.031C122.667 22.2732 121.414 21.8943 120.011 21.8943C117.631 21.9364 115.782 22.4627 114.465 23.4731C113.19 24.4415 112.552 26.1045 112.552 28.4623H104.711C104.711 23.5784 106.135 20.0207 108.982 17.7892C111.83 15.5157 115.591 14.421 120.266 14.5052C123.241 14.5473 125.812 15.3052 127.98 16.7788C130.19 18.2103 131.911 20.1049 133.144 22.4627C134.376 24.7783 134.992 27.2624 134.992 29.9148C135.077 32.4831 134.44 34.7356 133.08 36.6723C131.72 38.5669 129.871 40.3142 127.534 41.9141C125.239 43.4719 122.667 45.0929 119.82 46.777C118.247 47.6611 116.909 48.5032 115.804 49.3031C114.699 50.1031 114.104 50.8188 114.019 51.4504H134.546V58.8394H104.966Z" fill="white"/>
<path d="M16.775 76.46V100.009H14.0492V76.46H16.775Z" fill="white"/>
<path d="M34.0843 100.377C32.3749 100.377 30.9003 100.001 29.6607 99.25C28.4287 98.4911 27.4777 97.4333 26.8078 96.0764C26.1456 94.7119 25.8145 93.1251 25.8145 91.316C25.8145 89.5069 26.1456 87.9125 26.8078 86.5327C27.4777 85.1452 28.4094 84.0643 29.6029 83.2901C30.8041 82.5082 32.2055 82.1172 33.8071 82.1172C34.7311 82.1172 35.6435 82.2705 36.5444 82.5772C37.4453 82.8838 38.2653 83.3821 39.0045 84.072C39.7437 84.7542 40.3328 85.6588 40.7717 86.7856C41.2106 87.9125 41.43 89.3 41.43 90.9481V92.0979H27.7549V89.7522H38.658C38.658 88.7557 38.4578 87.8665 38.0574 87.0846C37.6647 86.3027 37.1027 85.6856 36.3712 85.2333C35.6474 84.7811 34.7927 84.5549 33.8071 84.5549C32.7214 84.5549 31.782 84.8232 30.9889 85.3598C30.2035 85.8887 29.5991 86.5787 29.1756 87.4295C28.7521 88.2804 28.5403 89.1926 28.5403 90.1662V91.73C28.5403 93.0638 28.7713 94.1945 29.2333 95.122C29.703 96.0419 30.3536 96.7433 31.1852 97.2263C32.0168 97.7015 32.9832 97.9392 34.0843 97.9392C34.8004 97.9392 35.4472 97.8395 36.0247 97.6402C36.6099 97.4332 37.1142 97.1266 37.5377 96.7203C37.9612 96.3064 38.2884 95.7928 38.5194 95.1795L41.1528 95.9154C40.8756 96.8047 40.4098 97.5866 39.7553 98.2611C39.1008 98.9281 38.2923 99.4493 37.3298 99.8249C36.3673 100.193 35.2855 100.377 34.0843 100.377Z" fill="white"/>
<path d="M57.1541 100.377C55.6757 100.377 54.3706 100.005 53.2387 99.2615C52.1068 98.5103 51.2213 97.4524 50.5822 96.0879C49.9431 94.7158 49.6235 93.0945 49.6235 91.2241C49.6235 89.369 49.9431 87.7592 50.5822 86.3947C51.2213 85.0302 52.1106 83.9762 53.2502 83.2326C54.3898 82.489 55.7065 82.1172 57.2003 82.1172C58.3553 82.1172 59.2677 82.3089 59.9376 82.6922C60.6152 83.0678 61.1311 83.4971 61.4853 83.98C61.8472 84.4553 62.1283 84.8462 62.3285 85.1528H62.5595V76.46H65.2852V100.009H62.6519V97.2953H62.3285C62.1283 97.6172 61.8434 98.0235 61.4738 98.5141C61.1042 98.997 60.5767 99.4302 59.8914 99.8134C59.2061 100.189 58.2937 100.377 57.1541 100.377ZM57.5237 97.9392C58.6171 97.9392 59.5411 97.6556 60.2957 97.0883C61.0503 96.5134 61.6239 95.72 62.0166 94.7081C62.4093 93.6886 62.6057 92.5119 62.6057 91.1781C62.6057 89.8596 62.4132 88.7059 62.0282 87.717C61.6432 86.7205 61.0734 85.9462 60.3188 85.3943C59.5642 84.8347 58.6325 84.5549 57.5237 84.5549C56.3687 84.5549 55.4062 84.85 54.6362 85.4403C53.8739 86.0229 53.3003 86.8163 52.9153 87.8205C52.538 88.817 52.3493 89.9362 52.3493 91.1781C52.3493 92.4352 52.5418 93.5774 52.9268 94.6046C53.3195 95.6242 53.897 96.4367 54.6593 97.0423C55.4293 97.6402 56.3841 97.9392 57.5237 97.9392Z" fill="white"/>
<path d="M82.6956 107C81.3789 107 80.247 106.831 79.2999 106.494C78.3528 106.164 77.5636 105.728 76.9322 105.183C76.3085 104.647 75.8118 104.072 75.4422 103.458L77.6136 101.941C77.86 102.263 78.1719 102.631 78.5492 103.045C78.9265 103.466 79.4424 103.83 80.0969 104.137C80.7591 104.451 81.6253 104.608 82.6956 104.608C84.1278 104.608 85.3097 104.263 86.2414 103.573C87.1731 102.884 87.639 101.803 87.639 100.331V96.7433H87.408C87.2078 97.0653 86.9229 97.4639 86.5533 97.9392C86.1914 98.4068 85.6678 98.8246 84.9825 99.1925C84.3049 99.5528 83.3886 99.733 82.2336 99.733C80.8014 99.733 79.5155 99.3957 78.3759 98.7211C77.244 98.0465 76.347 97.0653 75.6848 95.7775C75.0303 94.4896 74.7031 92.9258 74.7031 91.0861C74.7031 89.277 75.0226 87.7017 75.6617 86.3602C76.3008 85.011 77.1901 83.9685 78.3297 83.2326C79.4693 82.489 80.786 82.1172 82.2798 82.1172C83.4348 82.1172 84.3511 82.3089 85.0287 82.6922C85.714 83.0678 86.2376 83.4971 86.5995 83.98C86.9691 84.4553 87.254 84.8462 87.4542 85.1528H87.7314V82.3472H90.3648V100.515C90.3648 102.033 90.0183 103.267 89.3253 104.217C88.64 105.176 87.716 105.877 86.5533 106.322C85.3983 106.774 84.1124 107 82.6956 107ZM82.6032 97.2953C83.6966 97.2953 84.6206 97.0461 85.3752 96.5479C86.1298 96.0496 86.7034 95.3329 87.0961 94.3976C87.4888 93.4624 87.6852 92.3432 87.6852 91.0401C87.6852 89.7676 87.4927 88.6446 87.1077 87.671C86.7227 86.6975 86.1529 85.9347 85.3983 85.3828C84.6437 84.8309 83.712 84.5549 82.6032 84.5549C81.4482 84.5549 80.4857 84.8462 79.7157 85.4288C78.9534 86.0114 78.3798 86.7933 77.9948 87.7745C77.6175 88.7557 77.4288 89.8442 77.4288 91.0401C77.4288 92.2666 77.6213 93.3513 78.0063 94.2942C78.399 95.2294 78.9765 95.9653 79.7388 96.5019C80.5088 97.0308 81.4636 97.2953 82.6032 97.2953Z" fill="white"/>
<path d="M107.671 100.377C105.962 100.377 104.487 100.001 103.248 99.25C102.016 98.4911 101.065 97.4333 100.395 96.0764C99.7325 94.7119 99.4014 93.1251 99.4014 91.316C99.4014 89.5069 99.7325 87.9125 100.395 86.5327C101.065 85.1452 101.996 84.0643 103.19 83.2901C104.391 82.5082 105.792 82.1172 107.394 82.1172C108.318 82.1172 109.23 82.2705 110.131 82.5772C111.032 82.8838 111.852 83.3821 112.591 84.072C113.331 84.7542 113.92 85.6588 114.359 86.7856C114.797 87.9125 115.017 89.3 115.017 90.9481V92.0979H101.342V89.7522H112.245C112.245 88.7557 112.045 87.8665 111.644 87.0846C111.252 86.3027 110.69 85.6856 109.958 85.2333C109.234 84.7811 108.38 84.5549 107.394 84.5549C106.308 84.5549 105.369 84.8232 104.576 85.3598C103.79 85.8887 103.186 86.5787 102.762 87.4295C102.339 88.2804 102.127 89.1926 102.127 90.1662V91.73C102.127 93.0638 102.358 94.1945 102.82 95.122C103.29 96.0419 103.941 96.7433 104.772 97.2263C105.604 97.7015 106.57 97.9392 107.671 97.9392C108.387 97.9392 109.034 97.8395 109.612 97.6402C110.197 97.4332 110.701 97.1266 111.125 96.7203C111.548 96.3064 111.875 95.7928 112.106 95.1795L114.74 95.9154C114.463 96.8047 113.997 97.5866 113.342 98.2611C112.688 98.9281 111.879 99.4493 110.917 99.8249C109.954 100.193 108.872 100.377 107.671 100.377Z" fill="white"/>
<path d="M124.042 100.009V82.3472H126.675V85.0149H126.86C127.184 84.141 127.769 83.4319 128.616 82.8876C129.463 82.3434 130.418 82.0712 131.48 82.0712C131.68 82.0712 131.931 82.0751 132.231 82.0827C132.531 82.0904 132.758 82.1019 132.912 82.1172V84.8769C132.82 84.8539 132.608 84.8194 132.277 84.7734C131.954 84.7197 131.611 84.6929 131.249 84.6929C130.387 84.6929 129.617 84.873 128.939 85.2333C128.269 85.5859 127.738 86.0766 127.345 86.7051C126.96 87.3261 126.768 88.0351 126.768 88.8324V100.009H124.042Z" fill="white"/>
<rect x="14.0492" y="65.6053" width="75.2131" height="3.03561" fill="white"/>
<rect x="100.443" y="65.6053" width="34.5574" height="3.03561" fill="white"/>
</svg>
